# xmcd
#
# Track frame offsets: 
#        150
#        23925
#        44988
#        65136
#        81862
#        100145
#        116551
#        136111
#        151524
#        168854
#        184922
#        201925
#        215238
#        235035
#        253837
#        274885
#        296252
#        312188
#
# Disc length: 4395 seconds
#
# Revision: 0
# Processed by: cddbd v1.5.2PL0 Copyright (c) Steve Scherf et al.
# Submitted via: ExactAudioCopy v0.99pb4
#
DISCID=0a112912
DTITLE=Regine Velasquez - Low Key
DYEAR=2009
DGENRE=Vocal
TTITLE0=She's always a woman
TTITLE1=Leader of the band
TTITLE2=And I love you so
TTITLE3=No walls, no ceilings, no floors
TTITLE4=I'd rather leave while I'm in love
TTITLE5=Longer
TTITLE6=Tell me that you love me
TTITLE7=Good friend
TTITLE8=Never be the same
TTITLE9=Of all the things
TTITLE10=Walk in love
TTITLE11=How can I tell you
TTITLE12=Strawberry fields forever
TTITLE13=Weeping willows cattails
TTITLE14=Clouds across the moon
TTITLE15=At seventeen
TTITLE16=I never dreamed someone like you could love someone like me
TTITLE17=Christmas is (with Jim Brickman)
EXTD=
EXTT0=
EXTT1=
EXTT2=
EXTT3=
EXTT4=
EXTT5=
EXTT6=
EXTT7=
EXTT8=
EXTT9=
EXTT10=
EXTT11=
EXTT12=
EXTT13=
EXTT14=
EXTT15=
EXTT16=
EXTT17=
PLAYORDER=
